# File created by Blade
# Date/Time:  Tue Jan 27 17:16:36 2015
#---------------------------------------------------------
:version 1.10
:name HOM
:units
  mass 1.0
  length 1.000000
  angle deg
:documentation
     Acclaim Skeleton File
:root
   axis xyz
   order TX TY TZ RX RY RZ
   position 0.000000 0.000000 0.000000
   orientation 0 0 0
:bonedata
   begin
      id 1
      name Spine_dum
      direction 0.000000 1.000000 0.000000
      length 7.539951
      axis 0.0 0.0 0.0 xyz
   end
   begin
      id 2
      name LeftUpLeg_dum
      direction 1.000000 0.000000 0.000000
      length 3.345476
      axis 0.0 0.0 0.0 xyz
   end
   begin
      id 3
      name RightUpLeg_dum
      direction -1.000000 0.000000 0.000000
      length 3.345476
      axis 0.0 0.0 0.0 xyz
   end
   begin
      id 4
      name Spine
      direction 0.000000 1.000000 0.000000
      length 0.000000
      axis 0.0 0.0 0.0 xyz
      dof rx ry rz
   end
   begin
      id 5
      name Spine_dum1
      direction 0.000000 1.000000 0.000000
      length 15.093809
      axis 0.0 0.0 0.0 xyz
   end
   begin
      id 6
      name Spine_dum2
      direction 0.000000 1.000000 0.000000
      length 9.738928
      axis 0.0 0.0 0.0 xyz
   end
   begin
      id 7
      name Spine_dum3
      direction 0.000000 1.000000 0.000000
      length 9.738928
      axis 0.0 0.0 0.0 xyz
   end
   begin
      id 8
      name Head
      direction 0.000000 1.000000 0.000000
      length 4.527550
      axis 0.0 0.0 0.0 xyz
      dof rx ry rz
   end
   begin
      id 9
      name LeftShoulder
      direction 1.000000 0.000000 0.000000
      length 7.084015
      axis 0.0 0.0 -90.0 xyz
      dof rx ry rz
   end
   begin
      id 10
      name LeftArm
      direction 1.000000 0.000000 0.000000
      length 10.259319
      axis 0.0 0.0 -90.0 xyz
      dof rx ry rz
   end
   begin
      id 11
      name LeftForeArm
      direction 1.000000 0.000000 0.000000
      length 9.896984
      axis 0.0 0.0 -90.0 xyz
      dof ry rz rx
   end
   begin
      id 12
      name LeftHand
      direction 0.000000 0.000000 0.000000
      length 0.000000
      axis 0.0 0.0 -90.0 xyz
      dof rx ry rz
   end
   begin
      id 13
      name LeftHand_dum1
      direction 0.000000 0.000000 0.000000
      length 0.000000
      axis 0.0 0.0 -90.0 xyz
   end
   begin
      id 14
      name LeftHand_dum2
      direction 1.000000 0.000000 0.000000
      length 3.937000
      axis 0.0 0.0 -90.0 xyz
   end
   begin
      id 15
      name LeftHandThumb1
      direction 0.000000 0.000000 1.000000
      length 3.937000
      axis 0.0 0.0 -90.0 xyz
      dof rx rz ry
   end
   begin
      id 16
      name RightShoulder
      direction -1.000000 0.000000 0.000000
      length 7.084015
      axis 0.0 0.0 90.0 xyz
      dof rx ry rz
   end
   begin
      id 17
      name RightArm
      direction -1.000000 0.000000 0.000000
      length 10.259319
      axis 0.0 0.0 90.0 xyz
      dof rx ry rz
   end
   begin
      id 18
      name RightForeArm
      direction -1.000000 0.000000 0.000000
      length 9.896984
      axis 0.0 0.0 90.0 xyz
      dof ry rz rx
   end
   begin
      id 19
      name RightHand
      direction 0.000000 0.000000 0.000000
      length 0.000000
      axis 0.0 0.0 90.0 xyz
      dof rx ry rz
   end
   begin
      id 20
      name RightHand_dum1
      direction 0.000000 0.000000 0.000000
      length 0.000000
      axis 0.0 0.0 90.0 xyz
   end
   begin
      id 21
      name RightHand_dum2
      direction -1.000000 0.000000 0.000000
      length 3.937000
      axis 0.0 0.0 90.0 xyz
   end
   begin
      id 22
      name RightHandThumb1
      direction 0.000000 0.000000 1.000000
      length 3.937000
      axis 0.0 0.0 90.0 xyz
      dof rx rz ry
   end
   begin
      id 23
      name LeftUpLeg
      direction 0.000000 -1.000000 0.000000
      length 19.114733
      axis 0.0 0.0 0.0 xyz
      dof rx ry rz
   end
   begin
      id 24
      name LeftLeg
      direction 0.000000 -1.000000 0.000000
      length 16.045604
      axis 0.0 0.0 0.0 xyz
      dof rx ry rz
   end
   begin
      id 25
      name LeftFoot
      direction 0.000000 -0.258819 0.965926
      length 5.543155
      axis 15.0 0.0 0.0 xyz
      dof rx ry rz
   end
   begin
      id 26
      name LeftToeBase
      direction 0.000000 0.000000 1.000000
      length 2.952750
      axis 0.0 0.0 0.0 xyz
      dof rx ry rz
   end
   begin
      id 27
      name RightUpLeg
      direction 0.000000 -1.000000 0.000000
      length 19.114733
      axis 0.0 0.0 0.0 xyz
      dof rx ry rz
   end
   begin
      id 28
      name RightLeg
      direction 0.000000 -1.000000 0.000000
      length 16.045604
      axis 0.0 0.0 0.0 xyz
      dof rx ry rz
   end
   begin
      id 29
      name RightFoot
      direction 0.000000 -0.258819 0.965926
      length 5.543155
      axis 15.0 0.0 0.0 xyz
      dof rx ry rz
   end
   begin
      id 30
      name RightToeBase
      direction 0.000000 0.000000 1.000000
      length 2.952750
      axis 0.0 0.0 0.0 xyz
      dof rx ry rz
   end
:hierarchy
   begin
      root Spine_dum LeftUpLeg_dum RightUpLeg_dum
      Spine_dum Spine
      LeftUpLeg_dum LeftUpLeg
      RightUpLeg_dum RightUpLeg
      Spine Spine_dum1 Spine_dum2 Spine_dum3
      Spine_dum1 Head
      Spine_dum2 LeftShoulder
      Spine_dum3 RightShoulder
      LeftShoulder LeftArm
      LeftArm LeftForeArm
      LeftForeArm LeftHand
      LeftHand LeftHand_dum1 LeftHand_dum2
      LeftHand_dum1 LeftHandThumb1
      RightShoulder RightArm
      RightArm RightForeArm
      RightForeArm RightHand
      RightHand RightHand_dum1 RightHand_dum2
      RightHand_dum1 RightHandThumb1
      LeftUpLeg LeftLeg
      LeftLeg LeftFoot
      LeftFoot LeftToeBase
      RightUpLeg RightLeg
      RightLeg RightFoot
      RightFoot RightToeBase
   end

# File created by Blade
# Date/Time:  Tue Jan 27 17:16:27 2015
# Frame Rate: 120.000 fps
#------------------------------------------------------
:FULLY-SPECIFIED
:DEGREES
730
root -2.085989 36.643723 -0.355671 -1.716307 -47.536571 -0.205924
Spine 7.933132 21.301029 -4.616107
Head -2.968466 -4.488808 10.674646
LeftShoulder -6.523360 -10.348812 13.795409
LeftArm -26.270542 -27.802732 -21.988300
LeftForeArm 4.119030 -0.000000 66.576946
LeftHand -17.037448 -0.000000 49.084890
LeftHandThumb1 -26.253704 0.000000 33.147579
RightShoulder -1.567291 -16.902731 2.691438
RightArm 24.181643 -20.273612 57.450379
RightForeArm -175.337427 -0.000000 27.356462
RightHand 0.905524 -0.000000 6.458626
RightHandThumb1 -24.326973 -0.000000 -32.862282
LeftUpLeg -80.660649 9.754566 -14.719941
LeftLeg 99.013186 -0.000000 -0.000000
LeftFoot -3.006441 -2.422113 -24.607295
LeftToeBase 14.583833 -0.000000 -0.000000
RightUpLeg -9.249249 -4.432397 5.611090
RightLeg 22.811209 -0.000000 -0.000000
RightFoot -13.392164 18.297270 -2.080820
RightToeBase 0.892752 -0.000000 -0.000000
731
root -2.080163 36.658932 -0.344756 -1.939237 -47.567536 0.087685
Spine 7.960779 21.292865 -4.857922
Head -2.946232 -4.481615 10.590315
LeftShoulder -6.463963 -10.291898 13.836174
LeftArm -26.310437 -27.690444 -22.050498
LeftForeArm 4.203665 0.000000 66.623543
LeftHand -17.048301 -0.000000 49.039006
LeftHandThumb1 -26.253704 0.000000 33.147579
RightShoulder -1.605636 -16.918712 2.646436
RightArm 24.206400 -20.317845 57.541879
RightForeArm -175.502357 -0.000000 27.275612
RightHand 0.887115 0.000000 6.207493
RightHandThumb1 -24.326973 -0.000000 -32.862282
LeftUpLeg -80.247617 9.534413 -13.571663
LeftLeg 97.876371 -0.000000 -0.000000
LeftFoot -2.179982 -3.440633 -24.479813
LeftToeBase 14.369048 -0.000000 -0.000000
RightUpLeg -9.227828 -4.114606 5.425702
RightLeg 22.779652 -0.000000 -0.000000
RightFoot -13.359603 17.925629 -2.219738
RightToeBase 0.446168 -0.000000 -0.000000
732
root -2.075370 36.675008 -0.330890 -2.190272 -47.614628 0.400619
Spine 7.989960 21.286323 -5.114492
Head -2.903039 -4.485102 10.486546
LeftShoulder -6.469417 -10.242734 13.879910
LeftArm -26.321296 -27.490905 -22.098142
LeftForeArm 4.060255 -0.000000 66.682261
LeftHand -17.060871 -0.000000 49.437436
LeftHandThumb1 -26.253704 0.000000 33.147579
RightShoulder -1.614992 -16.943236 2.618258
RightArm 24.199233 -20.491373 57.530272
RightForeArm -175.404525 -0.000000 27.289268
RightHand 0.910562 0.000000 6.379272
RightHandThumb1 -24.326973 -0.000000 -32.862282
LeftUpLeg -79.801868 9.308166 -12.497249
LeftLeg 96.681872 -0.000000 -0.000000
LeftFoot -1.605180 -4.255090 -24.292141
LeftToeBase 14.788202 -0.000000 -0.000000
RightUpLeg -9.195138 -3.852266 5.226117
RightLeg 22.762311 -0.000000 -0.000000
RightFoot -13.322946 17.600293 -2.358569
RightToeBase 0.009849 -0.000000 -0.000000
733
root -2.069717 36.692686 -0.317480 -2.476369 -47.647403 0.738177
Spine 8.060445 21.289331 -5.371866
Head -2.889901 -4.490881 10.400208
LeftShoulder -6.488790 -10.232920 13.929473
LeftArm -26.247131 -27.323796 -22.196121
LeftForeArm 4.114789 0.000000 66.663579
LeftHand -17.197108 0.000000 49.875753
LeftHandThumb1 -26.253704 0.000000 33.147579
RightShoulder -1.648248 -17.010596 2.590343
RightArm 24.259276 -20.581763 57.543305
RightForeArm -175.357056 -0.000000 27.275613
RightHand 1.022298 -0.000000 6.620324
RightHandThumb1 -24.326973 -0.000000 -32.862282
LeftUpLeg -79.308443 9.029686 -11.431824
LeftLeg 95.411685 -0.000000 -0.000000
LeftFoot -1.099851 -4.840499 -23.603524
LeftToeBase 14.641405 -0.000000 -0.000000
RightUpLeg -9.129805 -3.542460 5.017111
RightLeg 22.709589 -0.000000 -0.000000
RightFoot -13.283325 17.174211 -2.506511
RightToeBase -0.387662 -0.000000 0.000000
734
root -2.062100 36.710705 -0.305654 -2.710802 -47.745875 1.029410
Spine 8.105645 21.371426 -5.570719
Head -2.854422 -4.497724 10.263925
LeftShoulder -6.497096 -10.214168 13.954496
LeftArm -26.181507 -27.141500 -22.301846
LeftForeArm 4.028749 -0.000000 66.660904
LeftHand -17.240550 0.000000 50.165697
LeftHandThumb1 -26.253704 0.000000 33.147579
RightShoulder -1.650660 -17.015311 2.530130
RightArm 24.200172 -20.455835 57.738029
RightForeArm -175.619636 -0.000000 27.167925
RightHand 0.919061 -0.000000 6.290885
RightHandThumb1 -24.326973 -0.000000 -32.862282
LeftUpLeg -78.835534 8.804030 -10.386666
LeftLeg 94.119149 -0.000000 -0.000000
LeftFoot -0.643153 -5.279261 -22.943422
LeftToeBase 14.440199 -0.000000 -0.000000
RightUpLeg -9.073610 -3.179300 4.837638
RightLeg 22.627400 -0.000000 -0.000000
RightFoot -13.209941 16.792270 -2.601166
RightToeBase -0.817911 -0.000000 0.000000
735
root -2.059601 36.728069 -0.292869 -2.949173 -47.789527 1.309711
Spine 8.144088 21.403390 -5.771287
Head -2.776253 -4.497794 10.137807
LeftShoulder -6.497139 -10.169935 13.993953
LeftArm -26.139820 -27.000191 -22.387643
LeftForeArm 3.956418 -0.000000 66.656699
LeftHand -17.288096 -0.000000 50.259134
LeftHandThumb1 -26.253704 0.000000 33.147579
RightShoulder -1.660296 -17.026654 2.484456
RightArm 24.113708 -20.593780 57.764216
RightForeArm -175.496245 -0.000000 27.228407
RightHand 1.015314 0.000000 6.378426
RightHandThumb1 -24.326973 -0.000000 -32.862282
LeftUpLeg -78.308084 8.506460 -9.283522
LeftLeg 92.772396 -0.000000 -0.000000
LeftFoot -0.299668 -5.667187 -22.860035
LeftToeBase 14.860544 -0.000000 -0.000000
RightUpLeg -8.989742 -2.754334 4.661926
RightLeg 22.534527 -0.000000 -0.000000
RightFoot -13.134411 16.354542 -2.599184
RightToeBase -1.101231 -0.000000 0.000000
736
root -2.056470 36.747877 -0.277525 -3.248835 -47.888963 1.637086
Spine 8.220986 21.490265 -5.978849
Head -2.697020 -4.425615 9.985982
LeftShoulder -6.511658 -10.183453 14.009943
LeftArm -26.086219 -26.860807 -22.455831
LeftForeArm 3.973264 -0.000000 66.595157
LeftHand -17.268295 -0.000000 50.170503
LeftHandThumb1 -26.253704 0.000000 33.147579
RightShoulder -1.581580 -16.973064 2.404483
RightArm 23.906547 -20.193133 58.201087
RightForeArm -176.054357 -0.000000 27.061066
RightHand 0.876749 -0.000000 6.056020
RightHandThumb1 -24.326973 -0.000000 -32.862282
LeftUpLeg -77.719423 8.227011 -8.197387
LeftLeg 91.392278 -0.000000 -0.000000
LeftFoot -0.002934 -5.971339 -22.799221
LeftToeBase 15.016982 -0.000000 -0.000000
RightUpLeg -8.882917 -2.480218 4.461139
RightLeg 22.452207 -0.000000 -0.000000
RightFoot -13.084957 16.016001 -2.750620
RightToeBase -1.438314 -0.000000 0.000000
737
root -2.049847 36.765651 -0.266220 -3.447169 -48.002525 1.931973
Spine 8.176847 21.585557 -6.193802
Head -2.551646 -4.368393 9.838665
LeftShoulder -6.524198 -10.177446 14.034653
LeftArm -26.029019 -26.742149 -22.526890
LeftForeArm 3.895413 -0.000000 66.557345
LeftHand -17.584044 -0.000000 50.620623
LeftHandThumb1 -26.253704 0.000000 33.147579
RightShoulder -1.550191 -16.998195 2.347254
RightArm 23.793748 -20.164108 58.329628
RightForeArm -176.152281 0.000000 27.034512
RightHand 0.850052 0.000000 5.977678
RightHandThumb1 -24.326973 -0.000000 -32.862282
LeftUpLeg -77.211748 7.933357 -7.140501
LeftLeg 89.957626 -0.000000 -0.000000
LeftFoot 0.265157 -5.938785 -22.738721
LeftToeBase 15.097457 -0.000000 -0.000000
RightUpLeg -8.860308 -2.238521 4.283301
RightLeg 22.348893 -0.000000 -0.000000
RightFoot -12.989238 15.749670 -2.878039
RightToeBase -1.785504 -0.000000 0.000000
738
root -2.041441 36.783943 -0.254077 -3.568637 -48.063654 2.159309
Spine 8.104695 21.621415 -6.342811
Head -2.424435 -4.421197 9.634136
LeftShoulder -6.543043 -10.216144 14.027686
LeftArm -25.987130 -26.571271 -22.584426
LeftForeArm 4.022946 -0.000000 66.497367
LeftHand -17.617765 -0.000000 50.588168
LeftHandThumb1 -26.253704 0.000000 33.147579
RightShoulder -1.665628 -17.229662 2.388328
RightArm 23.990436 -20.503948 57.953103
RightForeArm -175.747681 -0.000000 27.170647
RightHand 0.939531 -0.000000 6.601746
RightHandThumb1 -24.326973 -0.000000 -32.862282
LeftUpLeg -76.710355 7.544143 -6.033114
LeftLeg 88.483840 -0.000000 -0.000000
LeftFoot 0.477493 -5.861289 -22.712459
LeftToeBase 14.754883 -0.000000 -0.000000
RightUpLeg -8.854493 -2.071458 4.141492
RightLeg 22.226132 -0.000000 -0.000000
RightFoot -12.888750 15.542238 -3.018201
RightToeBase -2.159167 -0.000000 0.000000
739
root -2.037733 36.802301 -0.242041 -3.758858 -48.140029 2.429091
Spine 8.069421 21.684587 -6.534256
Head -2.285328 -4.433149 9.472624
LeftShoulder -6.530215 -10.274879 14.052919
LeftArm -26.021028 -26.480473 -22.612761
LeftForeArm 4.107386 -0.000000 66.427083
LeftHand -17.632378 -0.000000 50.708456
LeftHandThumb1 -26.253704 0.000000 33.147579
RightShoulder -1.679552 -17.276819 2.370919
RightArm 23.934271 -20.593718 57.942692
RightForeArm -175.620922 -0.000000 27.181873
RightHand 1.028070 -0.000000 6.428478
RightHandThumb1 -24.326973 -0.000000 -32.862282
LeftUpLeg -76.159521 7.167150 -4.992031
LeftLeg 87.006273 -0.000000 -0.000000
LeftFoot 0.498241 -5.522827 -22.544809
LeftToeBase 15.004342 -0.000000 -0.000000
RightUpLeg -8.802109 -1.821937 3.970795
RightLeg 22.100160 -0.000000 -0.000000
RightFoot -12.799762 15.325414 -3.043305
RightToeBase -2.322673 -0.000000 0.000000
740
root -2.034053 36.819343 -0.231932 -3.929564 -48.229125 2.687125
Spine 8.013239 21.761699 -6.717119
Head -2.137756 -4.420098 9.315925
LeftShoulder -6.556179 -10.214121 14.067445
LeftArm -25.956252 -26.468992 -22.692777
LeftForeArm 4.160905 -0.000000 66.368495
LeftHand -17.693740 -0.000000 50.880372
LeftHandThumb1 -26.253704 0.000000 33.147579
RightShoulder -1.690423 -17.309090 2.341249
RightArm 23.861985 -20.592203 58.022339
RightForeArm -175.751093 -0.000000 27.160411
RightHand 1.099210 -0.000000 6.463711
RightHandThumb1 -24.326973 -0.000000 -32.862282
LeftUpLeg -75.620393 6.803156 -3.989525
LeftLeg 85.499549 -0.000000 -0.000000
LeftFoot 0.492419 -5.140797 -22.319642
LeftToeBase 15.131508 -0.000000 -0.000000
RightUpLeg -8.764284 -1.462648 3.808263
RightLeg 21.979323 -0.000000 -0.000000
RightFoot -12.715762 15.032119 -3.012835
RightToeBase -2.459865 -0.000000 0.000000
741
root -2.032836 36.833808 -0.224241 -4.050032 -48.328839 2.890402
Spine 7.943053 21.827327 -6.860727
Head -2.003088 -4.359616 9.152860
LeftShoulder -6.543803 -10.262775 14.094700
LeftArm -26.060511 -26.430603 -22.696355
LeftForeArm 4.269985 0.000000 66.313215
LeftHand -17.693113 0.000000 50.937304
LeftHandThumb1 -26.253704 0.000000 33.147579
RightShoulder -1.678753 -17.325547 2.279167
RightArm 23.764805 -20.395819 58.253286
RightForeArm -176.036435 -0.000000 27.032299
RightHand 0.997017 -0.000000 6.150428
RightHandThumb1 -24.326973 -0.000000 -32.862282
LeftUpLeg -75.100529 6.439267 -2.963355
LeftLeg 83.983309 -0.000000 -0.000000
LeftFoot 0.532124 -4.670309 -22.169100
LeftToeBase 15.098991 -0.000000 -0.000000
RightUpLeg -8.734739 -1.228288 3.684261
RightLeg 21.853544 -0.000000 -0.000000
RightFoot -12.648876 14.862838 -3.030374
RightToeBase -2.558702 -0.000000 0.000000
